<svg width="295.45994873046874px" height="137.1199981689453px" xmlns="http://www.w3.org/2000/svg" viewBox="102.27002563476563 6.440000915527349 295.45994873046874 137.1199981689453" style="background: none;" preserveAspectRatio="xMidYMid"><defs><linearGradient id="editing-sticker-gradient" x1="0.5" y1="0.2" x2="0.5" y2="0.8"><stop offset="0" stop-color="#0a0a0a"></stop><stop offset="1" stop-color="#ffffff"></stop></linearGradient><filter id="editing-sticker" x="-100%" y="-100%" width="300%" height="300%"><feMorphology operator="erode" radius="1" in="SourceAlpha" result="alpha-erode"></feMorphology><feConvolveMatrix order="3,3" divisor="1" kernelMatrix="0 1 0 1 1 1 0 1 0" in="alpha-erode" result="alpha-round"></feConvolveMatrix><feMorphology operator="dilate" radius="3.5" in="alpha-round" result="dilate-shadow"></feMorphology><feGaussianBlur in="dilate-shadow" stdDeviation="1.5" result="shadow"></feGaussianBlur><feFlood flood-color="#fff" result="flood-sticker"></feFlood><feComposite operator="in" in="flood-sticker" in2="alpha-round" result="comp-sticker"></feComposite><feMorphology operator="dilate" radius="3" in="comp-sticker" result="morph-sticker"></feMorphology><feConvolveMatrix order="3,3" divisor="1" kernelMatrix="0 1 0 1 1 1 0 1 0" in="morph-sticker" result="sticker"></feConvolveMatrix><feMerge><feMergeNode in="shadow"></feMergeNode><feMergeNode in="sticker"></feMergeNode><feMergeNode in="SourceGraphic"></feMergeNode></feMerge></filter></defs><g filter="url(#editing-sticker)"><g transform="translate(148.66002714633942, 100.6300048828125)"><path d="M32.90 0L27.14-17.64L10.73-17.64L5.11 0L0.86 0L16.99-50.40L20.81-50.40L37.22 0L32.90 0ZM18.86-44.14L11.88-21.60L26.06-21.60L18.86-44.14ZM41.18-25.78L41.18-29.74L64.22-29.74L64.22-25.78L41.18-25.78ZM73.08 0L73.08-50.40L77.11-50.40L77.11-3.60L99.07-3.60L99.07 0L73.08 0ZM125.78-2.52L125.78-2.52Q123.19-0.86 119.88 0L119.88 0L119.88 0Q116.57 0.86 113.26 0.86L113.26 0.86L113.26 0.86Q107.93 0.86 104.80-1.76L104.80-1.76L104.80-1.76Q101.66-4.39 101.66-9.65L101.66-9.65L101.66-24.41L101.66-24.41Q101.66-30.24 105.30-33.48L105.30-33.48L105.30-33.48Q108.94-36.72 114.91-36.72L114.91-36.72L114.91-36.72Q120.89-36.72 124.24-33.52L124.24-33.52L124.24-33.52Q127.58-30.31 127.58-24.62L127.58-24.62L127.58-15.26L105.70-14.04L105.70-9.65L105.70-9.65Q105.70-6.19 107.93-4.46L107.93-4.46L107.93-4.46Q110.16-2.74 113.76-2.74L113.76-2.74L113.76-2.74Q118.80-2.74 124.20-5.62L124.20-5.62L125.78-2.52ZM123.55-25.13L123.55-25.13Q123.55-29.59 120.74-31.43L120.74-31.43L120.74-31.43Q117.94-33.26 114.84-33.26L114.84-33.26L114.84-33.26Q110.88-33.26 108.29-31.10L108.29-31.10L108.29-31.10Q105.70-28.94 105.70-24.34L105.70-24.34L105.70-18.00L123.55-18.86L123.55-25.13ZM142.70 0L131.69-36.07L135.94-36.07L145.51-4.18L155.16-36.07L159.41-36.07L148.25 0L142.70 0ZM187.56-2.52L187.56-2.52Q184.97-0.86 181.66 0L181.66 0L181.66 0Q178.34 0.86 175.03 0.86L175.03 0.86L175.03 0.86Q169.70 0.86 166.57-1.76L166.57-1.76L166.57-1.76Q163.44-4.39 163.44-9.65L163.44-9.65L163.44-24.41L163.44-24.41Q163.44-30.24 167.08-33.48L167.08-33.48L167.08-33.48Q170.71-36.72 176.69-36.72L176.69-36.72L176.69-36.72Q182.66-36.72 186.01-33.52L186.01-33.52L186.01-33.52Q189.36-30.31 189.36-24.62L189.36-24.62L189.36-15.26L167.47-14.04L167.47-9.65L167.47-9.65Q167.47-6.19 169.70-4.46L169.70-4.46L169.70-4.46Q171.94-2.74 175.54-2.74L175.54-2.74L175.54-2.74Q180.58-2.74 185.98-5.62L185.98-5.62L187.56-2.52ZM185.33-25.13L185.33-25.13Q185.33-29.59 182.52-31.43L182.52-31.43L182.52-31.43Q179.71-33.26 176.62-33.26L176.62-33.26L176.62-33.26Q172.66-33.26 170.06-31.10L170.06-31.10L170.06-31.10Q167.47-28.94 167.47-24.34L167.47-24.34L167.47-18.00L185.33-18.86L185.33-25.13ZM197.78 0L197.78-50.40L201.82-50.40L201.82 0L197.78 0Z" fill="url(#editing-sticker-gradient)" stroke="#f9ae5c" stroke-width="2.5"></path></g></g><style>text {
  font-size: 64px;
  font-family: Arial Black;
  dominant-baseline: central;
  text-anchor: middle;
}</style></svg>